<svg version="1.2" xmlns="http://www.w3.org/2000/svg" viewBox="0 0 32 50" width="32" height="50"><defs><filter x="-50%" y="-50%" width="200%" height="200%" id="f1" ><feDropShadow dx="-6.123233995736766e-17" dy="1" stdDeviation="0.4166666666666667" flood-color="#000000" flood-opacity=".2"/></filter><linearGradient id="P" gradientUnits="userSpaceOnUse"/><linearGradient id="g1" x1="15.7" y1="75.3" x2="15.7" y2="3.4" href="#P"><stop stop-color="#1c6226"/><stop offset="1" stop-color="#41bb5a"/></linearGradient><linearGradient id="g2" x1="15.9" y1="47.9" x2="15.9" y2="0" href="#P"><stop stop-color="#296935"/><stop offset="1" stop-color="#296935"/></linearGradient></defs><style>.a{filter:url(#f1);fill:url(#g1);stroke:url(#g2);stroke-linejoin:round}</style><path fill-rule="evenodd" class="a" d="m15.9 0c8.2 0 14.9 6.7 14.9 14.9 0 8.3-13.8 33-14.9 33-1 0-15-24.7-15-33 0-8.2 6.7-14.9 15-14.9zm-5 14.1c0 2.8 2.3 5 5.1 5 2.7 0 5-2.2 5-5 0-2.8-2.3-5-5-5-2.8 0-5.1 2.2-5.1 5z"/></svg>