<svg
    id="service"
    xmlns="http://www.w3.org/2000/svg"
    width="50"
    height="43"
    viewBox="0 0 50 43"
  >
    <g id="applications">
      <path
        id="icon"
        fillRule="evenodd"
        d="M3.571,0H46.428A3.578,3.578,0,0,1,50,3.583V39.416A3.578,3.578,0,0,1,46.428,43H3.571A3.577,3.577,0,0,1,0,39.416V3.583A3.577,3.577,0,0,1,3.571,0ZM4,9H46V39H4V9ZM21,3H46V6H21V3ZM6.249,2.687A1.792,1.792,0,1,1,4.464,4.479,1.789,1.789,0,0,1,6.249,2.687Zm5.357,0A1.792,1.792,0,1,1,9.821,4.479,1.789,1.789,0,0,1,11.607,2.687Zm5.469,0a1.792,1.792,0,1,1-1.786,1.792A1.789,1.789,0,0,1,17.075,2.687Z"
      />
    </g>
  </svg>