<svg
    id="service"
    xmlns="http://www.w3.org/2000/svg"
    width="50"
    height="58"
    viewBox="0 0 50 58"
  >
    <g id="websites">
      <path
        id="icon"
        d="M36.94,24.194H34.813a15.181,15.181,0,0,1-1.476,3.535L35.3,29.694a3.218,3.218,0,0,1,0,4.552l-1.139,1.138a3.222,3.222,0,0,1-4.555,0l-1.978-1.977a15.2,15.2,0,0,1-3.525,1.45v2.062a3.22,3.22,0,0,1-3.221,3.219H19.275a3.22,3.22,0,0,1-3.221-3.219V34.857a15.2,15.2,0,0,1-3.525-1.45l-1.978,1.977a3.222,3.222,0,0,1-4.555,0L4.857,34.246a3.218,3.218,0,0,1,0-4.552l1.966-1.965a15.17,15.17,0,0,1-1.476-3.535H3.221A3.22,3.22,0,0,1,0,20.974v-1.61a3.22,3.22,0,0,1,3.221-3.219h2.1a15.177,15.177,0,0,1,1.425-3.511l-1.89-1.889a3.218,3.218,0,0,1,0-4.553L6,5.055a3.222,3.222,0,0,1,4.555,0L12.4,6.907a15.187,15.187,0,0,1,3.65-1.526V3.219A3.22,3.22,0,0,1,19.275,0h1.611a3.22,3.22,0,0,1,3.221,3.219V5.381a15.2,15.2,0,0,1,3.65,1.526L29.61,5.055a3.222,3.222,0,0,1,4.555,0L35.3,6.193a3.218,3.218,0,0,1,0,4.553l-1.89,1.889a15.178,15.178,0,0,1,1.425,3.511h2.1a3.22,3.22,0,0,1,3.221,3.219v1.61A3.22,3.22,0,0,1,36.94,24.194ZM20.08,11.367a8.853,8.853,0,1,0,8.858,8.853A8.855,8.855,0,0,0,20.08,11.367Zm0,12.776a4.024,4.024,0,1,1,4.026-4.024A4.025,4.025,0,0,1,20.08,24.143ZM48.438,50.267H47.407a7.364,7.364,0,0,1-.716,1.715l0.953,0.953a1.561,1.561,0,0,1,0,2.208l-0.552.552a1.563,1.563,0,0,1-2.209,0l-0.959-.959a7.37,7.37,0,0,1-1.71.7v1A1.561,1.561,0,0,1,40.652,58H39.871a1.562,1.562,0,0,1-1.562-1.561v-1a7.376,7.376,0,0,1-1.71-.7l-0.959.959a1.563,1.563,0,0,1-2.209,0l-0.552-.552a1.56,1.56,0,0,1,0-2.208l0.953-.953a7.367,7.367,0,0,1-.716-1.715H32.084a1.562,1.562,0,0,1-1.562-1.561V47.925a1.562,1.562,0,0,1,1.562-1.561H33.1a7.357,7.357,0,0,1,.691-1.7l-0.916-.916a1.561,1.561,0,0,1,0-2.208l0.552-.552a1.562,1.562,0,0,1,2.209,0l0.9,0.9a7.367,7.367,0,0,1,1.771-.74V40.094a1.562,1.562,0,0,1,1.562-1.561h0.781a1.562,1.562,0,0,1,1.562,1.561v1.049a7.367,7.367,0,0,1,1.77.74l0.9-.9a1.563,1.563,0,0,1,2.209,0l0.552,0.552a1.561,1.561,0,0,1,0,2.208l-0.916.916a7.357,7.357,0,0,1,.691,1.7h1.019A1.562,1.562,0,0,1,50,47.925v0.781A1.562,1.562,0,0,1,48.438,50.267Zm-8.177-6.221a4.294,4.294,0,1,0,4.3,4.294A4.295,4.295,0,0,0,40.261,44.046Zm0,6.2a1.952,1.952,0,1,1,1.953-1.952A1.952,1.952,0,0,1,40.261,50.242Z"
      />
    </g>
  </svg>