<svg
    id="service"
    xmlns="http://www.w3.org/2000/svg"
    width="45"
    height="46"
    viewBox="0 0 45 46"
  >
    <g id="seo">
      <path
        id="icon"
        d="M44.082,43.994l-1.093,1.092a3.1,3.1,0,0,1-4.375,0l-8.749-8.738a3.043,3.043,0,0,1-.436-3.712L24.646,27.86a15.486,15.486,0,1,1,2.291-2.081l4.679,4.673a3.053,3.053,0,0,1,3.717.436l8.749,8.738A3.087,3.087,0,0,1,44.082,43.994ZM27.017,15.4A11.535,11.535,0,0,0,10.453,4.967c0.807,0.828,2.025,2.066,2.089,2.066-1.257,0-5.371,4.109-5.371,5.461,0-.065-1.309-1.306-2.166-2.112A11.457,11.457,0,0,0,3.817,15.4,11.6,11.6,0,0,0,27.017,15.4Z"
      />
    </g>
  </svg>