<svg version="1.2" xmlns="http://www.w3.org/2000/svg" viewBox="0 0 50 42" width="50" height="42"><style>.photo{fill:currentColor}</style><path fill-rule="evenodd" class="photo" d="m3.4 5.2h3.5v-5.2l13.8 0.1v5.2l25.9-0.1c1.9 0 3.4 1.6 3.4 3.5v29.8c0 1.9-1.5 3.5-3.4 3.5h-43.2c-1.9 0-3.4-1.6-3.4-3.5v-29.8c0-1.9 1.5-3.5 3.4-3.5zm6.9 3.5h6.9v-5.2h-6.9zm28.5 4.4c0 1.9 1.5 3.5 3.4 3.5 1.9 0 3.5-1.6 3.5-3.5 0-1.9-1.6-3.5-3.5-3.5-1.9 0-3.4 1.6-3.4 3.5zm-31.9 11.3c0 6.7 5.4 12.2 12.1 12.2 6.6 0 12-5.5 12-12.2 0-6.8-5.4-12.3-12-12.3-6.7 0-12.1 5.5-12.1 12.3zm12.1-7.6c4.3 0 7.7 3.5 7.7 7.9 0 4.3-3.4 7.8-7.7 7.8-4.3 0-7.8-3.5-7.8-7.8 0-4.4 3.5-7.9 7.8-7.9z"/></svg>